<svg width="100" height="100" viewBox="0 0 100 100" fill="none" xmlns="http://www.w3.org/2000/svg">
  <rect width="100" height="100" rx="20" fill="url(#paint0_linear)" />
  <path d="M30 50C30 38.954 38.954 30 50 30V30C61.046 30 70 38.954 70 50V58C70 64.6274 64.6274 70 58 70H50C38.954 70 30 61.046 30 50V50Z" fill="white"/>
  <rect x="45" y="25" width="10" height="15" rx="5" fill="white"/>
  <rect x="35" y="45" width="6" height="15" rx="3" fill="url(#paint1_linear)"/>
  <rect x="45" y="40" width="6" height="25" rx="3" fill="url(#paint2_linear)"/>
  <rect x="55" y="43" width="6" height="20" rx="3" fill="url(#paint3_linear)"/>
  <rect x="65" y="48" width="6" height="12" rx="3" fill="url(#paint4_linear)"/>
  <defs>
    <linearGradient id="paint0_linear" x1="0" y1="0" x2="100" y2="100" gradientUnits="userSpaceOnUse">
      <stop stop-color="#4B0082"/>
      <stop offset="1" stop-color="#00BFFF"/>
    </linearGradient>
    <linearGradient id="paint1_linear" x1="38" y1="45" x2="38" y2="60" gradientUnits="userSpaceOnUse">
      <stop stop-color="#4B0082"/>
      <stop offset="1" stop-color="#00BFFF"/>
    </linearGradient>
    <linearGradient id="paint2_linear" x1="48" y1="40" x2="48" y2="65" gradientUnits="userSpaceOnUse">
      <stop stop-color="#4B0082"/>
      <stop offset="1" stop-color="#00BFFF"/>
    </linearGradient>
    <linearGradient id="paint3_linear" x1="58" y1="43" x2="58" y2="63" gradientUnits="userSpaceOnUse">
      <stop stop-color="#4B0082"/>
      <stop offset="1" stop-color="#00BFFF"/>
    </linearGradient>
    <linearGradient id="paint4_linear" x1="68" y1="48" x2="68" y2="60" gradientUnits="userSpaceOnUse">
      <stop stop-color="#4B0082"/>
      <stop offset="1" stop-color="#00BFFF"/>
    </linearGradient>
  </defs>
</svg>